<svg id="visual" viewBox="0 0 960 540" width="960" height="540" xmlns="http://www.w3.org/2000/svg" xmlns:xlink="http://www.w3.org/1999/xlink" version="1.1"><rect x="0" y="0" width="960" height="540" fill="#001220"></rect><path d="M0 363L20 362.8C40 362.7 80 362.3 120 367C160 371.7 200 381.3 240 381.5C280 381.7 320 372.3 360 373.8C400 375.3 440 387.7 480 391C520 394.3 560 388.7 600 386.5C640 384.3 680 385.7 720 387.5C760 389.3 800 391.7 840 385.8C880 380 920 366 940 359L960 352L960 541L940 541C920 541 880 541 840 541C800 541 760 541 720 541C680 541 640 541 600 541C560 541 520 541 480 541C440 541 400 541 360 541C320 541 280 541 240 541C200 541 160 541 120 541C80 541 40 541 20 541L0 541Z" fill="#c62368"></path><path d="M0 407L20 407.2C40 407.3 80 407.7 120 404.2C160 400.7 200 393.3 240 395.8C280 398.3 320 410.7 360 410.7C400 410.7 440 398.3 480 392.7C520 387 560 388 600 386.2C640 384.3 680 379.7 720 382.2C760 384.7 800 394.3 840 395.3C880 396.3 920 388.7 940 384.8L960 381L960 541L940 541C920 541 880 541 840 541C800 541 760 541 720 541C680 541 640 541 600 541C560 541 520 541 480 541C440 541 400 541 360 541C320 541 280 541 240 541C200 541 160 541 120 541C80 541 40 541 20 541L0 541Z" fill="#712b6d"></path><path d="M0 424L20 423C40 422 80 420 120 416.8C160 413.7 200 409.3 240 406.2C280 403 320 401 360 400.8C400 400.7 440 402.3 480 405.8C520 409.3 560 414.7 600 413.8C640 413 680 406 720 408.5C760 411 800 423 840 424C880 425 920 415 940 410L960 405L960 541L940 541C920 541 880 541 840 541C800 541 760 541 720 541C680 541 640 541 600 541C560 541 520 541 480 541C440 541 400 541 360 541C320 541 280 541 240 541C200 541 160 541 120 541C80 541 40 541 20 541L0 541Z" fill="#22244c"></path><path d="M0 456L20 453.7C40 451.3 80 446.7 120 445.7C160 444.7 200 447.3 240 444.2C280 441 320 432 360 429.2C400 426.3 440 429.7 480 435.2C520 440.7 560 448.3 600 447.5C640 446.7 680 437.3 720 430.8C760 424.3 800 420.7 840 425C880 429.3 920 441.7 940 447.8L960 454L960 541L940 541C920 541 880 541 840 541C800 541 760 541 720 541C680 541 640 541 600 541C560 541 520 541 480 541C440 541 400 541 360 541C320 541 280 541 240 541C200 541 160 541 120 541C80 541 40 541 20 541L0 541Z" fill="#001122"></path><path d="M0 440L20 445.7C40 451.3 80 462.7 120 463.7C160 464.7 200 455.3 240 455.2C280 455 320 464 360 465.2C400 466.3 440 459.7 480 459C520 458.3 560 463.7 600 462C640 460.3 680 451.7 720 450.8C760 450 800 457 840 458.7C880 460.3 920 456.7 940 454.8L960 453L960 541L940 541C920 541 880 541 840 541C800 541 760 541 720 541C680 541 640 541 600 541C560 541 520 541 480 541C440 541 400 541 360 541C320 541 280 541 240 541C200 541 160 541 120 541C80 541 40 541 20 541L0 541Z" fill="#001122"></path><path d="M0 484L20 483.7C40 483.3 80 482.7 120 479C160 475.3 200 468.7 240 468.5C280 468.3 320 474.7 360 474.7C400 474.7 440 468.3 480 467.2C520 466 560 470 600 470.7C640 471.3 680 468.7 720 469.7C760 470.7 800 475.3 840 479.8C880 484.3 920 488.7 940 490.8L960 493L960 541L940 541C920 541 880 541 840 541C800 541 760 541 720 541C680 541 640 541 600 541C560 541 520 541 480 541C440 541 400 541 360 541C320 541 280 541 240 541C200 541 160 541 120 541C80 541 40 541 20 541L0 541Z" fill="#22244c"></path><path d="M0 510L20 507.7C40 505.3 80 500.7 120 497.3C160 494 200 492 240 490.7C280 489.3 320 488.7 360 487.7C400 486.7 440 485.3 480 488.3C520 491.3 560 498.7 600 498.8C640 499 680 492 720 490C760 488 800 491 840 490.8C880 490.7 920 487.3 940 485.7L960 484L960 541L940 541C920 541 880 541 840 541C800 541 760 541 720 541C680 541 640 541 600 541C560 541 520 541 480 541C440 541 400 541 360 541C320 541 280 541 240 541C200 541 160 541 120 541C80 541 40 541 20 541L0 541Z" fill="#712b6d"></path><path d="M0 514L20 514C40 514 80 514 120 513.3C160 512.7 200 511.3 240 513C280 514.7 320 519.3 360 521.2C400 523 440 522 480 518.5C520 515 560 509 600 509.3C640 509.7 680 516.3 720 517C760 517.7 800 512.3 840 510.2C880 508 920 509 940 509.5L960 510L960 541L940 541C920 541 880 541 840 541C800 541 760 541 720 541C680 541 640 541 600 541C560 541 520 541 480 541C440 541 400 541 360 541C320 541 280 541 240 541C200 541 160 541 120 541C80 541 40 541 20 541L0 541Z" fill="#c62368"></path></svg>